<mxfile host="app.diagrams.net" modified="2023-01-04T17:32:13.792Z" agent="5.0 (Windows NT 10.0; Win64; x64) AppleWebKit/537.36 (KHTML, like Gecko) Chrome/108.0.0.0 Safari/537.36" version="20.8.1" etag="T4N77DyGX48stli9iViK" type="gitlab">
  <diagram id="Xzn1lwjjqMpXS6hI89iO" name="Страница 1">
    <mxGraphModel dx="1877" dy="581" grid="1" gridSize="10" guides="1" tooltips="1" connect="1" arrows="1" fold="1" page="1" pageScale="1" pageWidth="827" pageHeight="1169" math="0" shadow="0">
      <root>
        <mxCell id="0" />
        <mxCell id="1" parent="0" />
        <mxCell id="oy4755nHvuw4tqzsBrUj-14" value="User" style="swimlane;fontStyle=0;childLayout=stackLayout;horizontal=1;startSize=26;horizontalStack=0;resizeParent=1;resizeParentMax=0;resizeLast=0;collapsible=1;marginBottom=0;align=center;fontSize=14;" vertex="1" parent="1">
          <mxGeometry x="-810" y="40" width="160" height="140" as="geometry" />
        </mxCell>
        <mxCell id="oy4755nHvuw4tqzsBrUj-15" value="id&#xa;" style="text;strokeColor=none;fillColor=none;spacingLeft=4;spacingRight=4;overflow=hidden;rotatable=0;points=[[0,0.5],[1,0.5]];portConstraint=eastwest;fontSize=12;" vertex="1" parent="oy4755nHvuw4tqzsBrUj-14">
          <mxGeometry y="26" width="160" height="30" as="geometry" />
        </mxCell>
        <mxCell id="oy4755nHvuw4tqzsBrUj-16" value="email" style="text;strokeColor=none;fillColor=none;spacingLeft=4;spacingRight=4;overflow=hidden;rotatable=0;points=[[0,0.5],[1,0.5]];portConstraint=eastwest;fontSize=12;" vertex="1" parent="oy4755nHvuw4tqzsBrUj-14">
          <mxGeometry y="56" width="160" height="30" as="geometry" />
        </mxCell>
        <mxCell id="oy4755nHvuw4tqzsBrUj-17" value="password&#xa;&#xa;role" style="text;strokeColor=none;fillColor=none;spacingLeft=4;spacingRight=4;overflow=hidden;rotatable=0;points=[[0,0.5],[1,0.5]];portConstraint=eastwest;fontSize=12;" vertex="1" parent="oy4755nHvuw4tqzsBrUj-14">
          <mxGeometry y="86" width="160" height="54" as="geometry" />
        </mxCell>
        <mxCell id="oy4755nHvuw4tqzsBrUj-18" value="basket" style="swimlane;fontStyle=0;childLayout=stackLayout;horizontal=1;startSize=26;horizontalStack=0;resizeParent=1;resizeParentMax=0;resizeLast=0;collapsible=1;marginBottom=0;align=center;fontSize=14;" vertex="1" parent="1">
          <mxGeometry x="-580" y="40" width="160" height="86" as="geometry" />
        </mxCell>
        <mxCell id="oy4755nHvuw4tqzsBrUj-19" value="id&#xa;" style="text;strokeColor=none;fillColor=none;spacingLeft=4;spacingRight=4;overflow=hidden;rotatable=0;points=[[0,0.5],[1,0.5]];portConstraint=eastwest;fontSize=12;" vertex="1" parent="oy4755nHvuw4tqzsBrUj-18">
          <mxGeometry y="26" width="160" height="30" as="geometry" />
        </mxCell>
        <mxCell id="oy4755nHvuw4tqzsBrUj-20" value="user_id&#xa;&#xa;&#xa;" style="text;strokeColor=none;fillColor=none;spacingLeft=4;spacingRight=4;overflow=hidden;rotatable=0;points=[[0,0.5],[1,0.5]];portConstraint=eastwest;fontSize=12;" vertex="1" parent="oy4755nHvuw4tqzsBrUj-18">
          <mxGeometry y="56" width="160" height="30" as="geometry" />
        </mxCell>
        <mxCell id="oy4755nHvuw4tqzsBrUj-27" value="" style="edgeStyle=entityRelationEdgeStyle;fontSize=12;html=1;endArrow=ERmandOne;startArrow=ERmandOne;rounded=0;exitX=1.021;exitY=0.219;exitDx=0;exitDy=0;exitPerimeter=0;entryX=0;entryY=0.5;entryDx=0;entryDy=0;" edge="1" parent="1" source="oy4755nHvuw4tqzsBrUj-17" target="oy4755nHvuw4tqzsBrUj-19">
          <mxGeometry width="100" height="100" relative="1" as="geometry">
            <mxPoint x="360" y="150" as="sourcePoint" />
            <mxPoint x="460" y="50" as="targetPoint" />
          </mxGeometry>
        </mxCell>
        <mxCell id="oy4755nHvuw4tqzsBrUj-28" value="device" style="swimlane;fontStyle=0;childLayout=stackLayout;horizontal=1;startSize=26;horizontalStack=0;resizeParent=1;resizeParentMax=0;resizeLast=0;collapsible=1;marginBottom=0;align=center;fontSize=14;" vertex="1" parent="1">
          <mxGeometry x="-140" y="50" width="160" height="240" as="geometry" />
        </mxCell>
        <mxCell id="oy4755nHvuw4tqzsBrUj-29" value="id" style="text;strokeColor=none;fillColor=none;spacingLeft=4;spacingRight=4;overflow=hidden;rotatable=0;points=[[0,0.5],[1,0.5]];portConstraint=eastwest;fontSize=12;" vertex="1" parent="oy4755nHvuw4tqzsBrUj-28">
          <mxGeometry y="26" width="160" height="30" as="geometry" />
        </mxCell>
        <mxCell id="oy4755nHvuw4tqzsBrUj-30" value="name" style="text;strokeColor=none;fillColor=none;spacingLeft=4;spacingRight=4;overflow=hidden;rotatable=0;points=[[0,0.5],[1,0.5]];portConstraint=eastwest;fontSize=12;" vertex="1" parent="oy4755nHvuw4tqzsBrUj-28">
          <mxGeometry y="56" width="160" height="30" as="geometry" />
        </mxCell>
        <mxCell id="oy4755nHvuw4tqzsBrUj-31" value="price&#xa;&#xa;raiting&#xa;&#xa;image&#xa;&#xa;type&#xa;&#xa;brandId" style="text;strokeColor=none;fillColor=none;spacingLeft=4;spacingRight=4;overflow=hidden;rotatable=0;points=[[0,0.5],[1,0.5]];portConstraint=eastwest;fontSize=12;" vertex="1" parent="oy4755nHvuw4tqzsBrUj-28">
          <mxGeometry y="86" width="160" height="154" as="geometry" />
        </mxCell>
        <mxCell id="oy4755nHvuw4tqzsBrUj-32" value="type" style="swimlane;fontStyle=0;childLayout=stackLayout;horizontal=1;startSize=26;horizontalStack=0;resizeParent=1;resizeParentMax=0;resizeLast=0;collapsible=1;marginBottom=0;align=center;fontSize=14;" vertex="1" parent="1">
          <mxGeometry x="150" y="30" width="160" height="86" as="geometry" />
        </mxCell>
        <mxCell id="oy4755nHvuw4tqzsBrUj-33" value="id" style="text;strokeColor=none;fillColor=none;spacingLeft=4;spacingRight=4;overflow=hidden;rotatable=0;points=[[0,0.5],[1,0.5]];portConstraint=eastwest;fontSize=12;" vertex="1" parent="oy4755nHvuw4tqzsBrUj-32">
          <mxGeometry y="26" width="160" height="30" as="geometry" />
        </mxCell>
        <mxCell id="oy4755nHvuw4tqzsBrUj-34" value="name" style="text;strokeColor=none;fillColor=none;spacingLeft=4;spacingRight=4;overflow=hidden;rotatable=0;points=[[0,0.5],[1,0.5]];portConstraint=eastwest;fontSize=12;" vertex="1" parent="oy4755nHvuw4tqzsBrUj-32">
          <mxGeometry y="56" width="160" height="30" as="geometry" />
        </mxCell>
        <mxCell id="oy4755nHvuw4tqzsBrUj-36" value="brand" style="swimlane;fontStyle=0;childLayout=stackLayout;horizontal=1;startSize=26;horizontalStack=0;resizeParent=1;resizeParentMax=0;resizeLast=0;collapsible=1;marginBottom=0;align=center;fontSize=14;" vertex="1" parent="1">
          <mxGeometry x="150" y="140" width="160" height="86" as="geometry" />
        </mxCell>
        <mxCell id="oy4755nHvuw4tqzsBrUj-38" value="name" style="text;strokeColor=none;fillColor=none;spacingLeft=4;spacingRight=4;overflow=hidden;rotatable=0;points=[[0,0.5],[1,0.5]];portConstraint=eastwest;fontSize=12;" vertex="1" parent="oy4755nHvuw4tqzsBrUj-36">
          <mxGeometry y="26" width="160" height="30" as="geometry" />
        </mxCell>
        <mxCell id="oy4755nHvuw4tqzsBrUj-37" value="id" style="text;strokeColor=none;fillColor=none;spacingLeft=4;spacingRight=4;overflow=hidden;rotatable=0;points=[[0,0.5],[1,0.5]];portConstraint=eastwest;fontSize=12;" vertex="1" parent="oy4755nHvuw4tqzsBrUj-36">
          <mxGeometry y="56" width="160" height="30" as="geometry" />
        </mxCell>
        <mxCell id="oy4755nHvuw4tqzsBrUj-42" value="" style="edgeStyle=entityRelationEdgeStyle;fontSize=12;html=1;endArrow=ERoneToMany;rounded=0;exitX=0.024;exitY=-0.1;exitDx=0;exitDy=0;exitPerimeter=0;entryX=1.024;entryY=0.651;entryDx=0;entryDy=0;entryPerimeter=0;" edge="1" parent="1" source="oy4755nHvuw4tqzsBrUj-38" target="oy4755nHvuw4tqzsBrUj-31">
          <mxGeometry width="100" height="100" relative="1" as="geometry">
            <mxPoint x="50" y="230" as="sourcePoint" />
            <mxPoint y="230" as="targetPoint" />
          </mxGeometry>
        </mxCell>
        <mxCell id="oy4755nHvuw4tqzsBrUj-43" value="" style="edgeStyle=entityRelationEdgeStyle;fontSize=12;html=1;endArrow=ERoneToMany;rounded=0;entryX=1.019;entryY=0.233;entryDx=0;entryDy=0;entryPerimeter=0;exitX=0;exitY=0.5;exitDx=0;exitDy=0;" edge="1" parent="1" source="oy4755nHvuw4tqzsBrUj-34" target="oy4755nHvuw4tqzsBrUj-30">
          <mxGeometry width="100" height="100" relative="1" as="geometry">
            <mxPoint x="70" y="130" as="sourcePoint" />
            <mxPoint x="-110" y="150" as="targetPoint" />
          </mxGeometry>
        </mxCell>
        <mxCell id="oy4755nHvuw4tqzsBrUj-46" value="" style="edgeStyle=entityRelationEdgeStyle;fontSize=12;html=1;endArrow=ERmany;startArrow=ERmany;rounded=0;entryX=1;entryY=0.5;entryDx=0;entryDy=0;exitX=1;exitY=0.5;exitDx=0;exitDy=0;" edge="1" parent="1" source="oy4755nHvuw4tqzsBrUj-33" target="oy4755nHvuw4tqzsBrUj-37">
          <mxGeometry width="100" height="100" relative="1" as="geometry">
            <mxPoint x="-260" y="430" as="sourcePoint" />
            <mxPoint x="160" y="230" as="targetPoint" />
          </mxGeometry>
        </mxCell>
        <mxCell id="oy4755nHvuw4tqzsBrUj-47" value="device info" style="swimlane;fontStyle=0;childLayout=stackLayout;horizontal=1;startSize=26;horizontalStack=0;resizeParent=1;resizeParentMax=0;resizeLast=0;collapsible=1;marginBottom=0;align=center;fontSize=14;" vertex="1" parent="1">
          <mxGeometry x="-430" y="270" width="160" height="150" as="geometry" />
        </mxCell>
        <mxCell id="oy4755nHvuw4tqzsBrUj-48" value="id" style="text;strokeColor=none;fillColor=none;spacingLeft=4;spacingRight=4;overflow=hidden;rotatable=0;points=[[0,0.5],[1,0.5]];portConstraint=eastwest;fontSize=12;" vertex="1" parent="oy4755nHvuw4tqzsBrUj-47">
          <mxGeometry y="26" width="160" height="30" as="geometry" />
        </mxCell>
        <mxCell id="oy4755nHvuw4tqzsBrUj-49" value="device_id" style="text;strokeColor=none;fillColor=none;spacingLeft=4;spacingRight=4;overflow=hidden;rotatable=0;points=[[0,0.5],[1,0.5]];portConstraint=eastwest;fontSize=12;" vertex="1" parent="oy4755nHvuw4tqzsBrUj-47">
          <mxGeometry y="56" width="160" height="30" as="geometry" />
        </mxCell>
        <mxCell id="oy4755nHvuw4tqzsBrUj-50" value="title&#xa;&#xa;decription" style="text;strokeColor=none;fillColor=none;spacingLeft=4;spacingRight=4;overflow=hidden;rotatable=0;points=[[0,0.5],[1,0.5]];portConstraint=eastwest;fontSize=12;" vertex="1" parent="oy4755nHvuw4tqzsBrUj-47">
          <mxGeometry y="86" width="160" height="64" as="geometry" />
        </mxCell>
        <mxCell id="oy4755nHvuw4tqzsBrUj-51" value="" style="edgeStyle=entityRelationEdgeStyle;fontSize=12;html=1;endArrow=ERoneToMany;rounded=0;exitX=1.006;exitY=0.033;exitDx=0;exitDy=0;exitPerimeter=0;entryX=-0.001;entryY=0.687;entryDx=0;entryDy=0;entryPerimeter=0;" edge="1" parent="1" source="oy4755nHvuw4tqzsBrUj-48" target="oy4755nHvuw4tqzsBrUj-31">
          <mxGeometry width="100" height="100" relative="1" as="geometry">
            <mxPoint x="-270" y="350" as="sourcePoint" />
            <mxPoint x="-230" y="270" as="targetPoint" />
          </mxGeometry>
        </mxCell>
        <mxCell id="oy4755nHvuw4tqzsBrUj-52" value="basket device" style="swimlane;fontStyle=0;childLayout=stackLayout;horizontal=1;startSize=26;horizontalStack=0;resizeParent=1;resizeParentMax=0;resizeLast=0;collapsible=1;marginBottom=0;align=center;fontSize=14;" vertex="1" parent="1">
          <mxGeometry x="-380" y="40" width="160" height="116" as="geometry" />
        </mxCell>
        <mxCell id="oy4755nHvuw4tqzsBrUj-53" value="id" style="text;strokeColor=none;fillColor=none;spacingLeft=4;spacingRight=4;overflow=hidden;rotatable=0;points=[[0,0.5],[1,0.5]];portConstraint=eastwest;fontSize=12;" vertex="1" parent="oy4755nHvuw4tqzsBrUj-52">
          <mxGeometry y="26" width="160" height="30" as="geometry" />
        </mxCell>
        <mxCell id="oy4755nHvuw4tqzsBrUj-54" value="device_id" style="text;strokeColor=none;fillColor=none;spacingLeft=4;spacingRight=4;overflow=hidden;rotatable=0;points=[[0,0.5],[1,0.5]];portConstraint=eastwest;fontSize=12;" vertex="1" parent="oy4755nHvuw4tqzsBrUj-52">
          <mxGeometry y="56" width="160" height="30" as="geometry" />
        </mxCell>
        <mxCell id="oy4755nHvuw4tqzsBrUj-55" value="basket_id" style="text;strokeColor=none;fillColor=none;spacingLeft=4;spacingRight=4;overflow=hidden;rotatable=0;points=[[0,0.5],[1,0.5]];portConstraint=eastwest;fontSize=12;" vertex="1" parent="oy4755nHvuw4tqzsBrUj-52">
          <mxGeometry y="86" width="160" height="30" as="geometry" />
        </mxCell>
        <mxCell id="oy4755nHvuw4tqzsBrUj-57" value="" style="edgeStyle=entityRelationEdgeStyle;fontSize=12;html=1;endArrow=ERmany;rounded=0;exitX=1;exitY=0.5;exitDx=0;exitDy=0;entryX=0;entryY=0.5;entryDx=0;entryDy=0;" edge="1" parent="1" source="oy4755nHvuw4tqzsBrUj-19" target="oy4755nHvuw4tqzsBrUj-53">
          <mxGeometry width="100" height="100" relative="1" as="geometry">
            <mxPoint x="-360" y="350" as="sourcePoint" />
            <mxPoint x="-260" y="250" as="targetPoint" />
          </mxGeometry>
        </mxCell>
        <mxCell id="oy4755nHvuw4tqzsBrUj-58" value="" style="edgeStyle=entityRelationEdgeStyle;fontSize=12;html=1;endArrow=ERmandOne;startArrow=ERmandOne;rounded=0;exitX=1;exitY=0.5;exitDx=0;exitDy=0;entryX=-0.001;entryY=1.167;entryDx=0;entryDy=0;entryPerimeter=0;" edge="1" parent="1" source="oy4755nHvuw4tqzsBrUj-54" target="oy4755nHvuw4tqzsBrUj-30">
          <mxGeometry width="100" height="100" relative="1" as="geometry">
            <mxPoint x="-360" y="350" as="sourcePoint" />
            <mxPoint x="-260" y="250" as="targetPoint" />
          </mxGeometry>
        </mxCell>
        <mxCell id="oy4755nHvuw4tqzsBrUj-59" value="raiting" style="swimlane;fontStyle=0;childLayout=stackLayout;horizontal=1;startSize=26;horizontalStack=0;resizeParent=1;resizeParentMax=0;resizeLast=0;collapsible=1;marginBottom=0;align=center;fontSize=14;" vertex="1" parent="1">
          <mxGeometry x="-790" y="250" width="150" height="160" as="geometry" />
        </mxCell>
        <mxCell id="oy4755nHvuw4tqzsBrUj-60" value="id" style="text;strokeColor=none;fillColor=none;spacingLeft=4;spacingRight=4;overflow=hidden;rotatable=0;points=[[0,0.5],[1,0.5]];portConstraint=eastwest;fontSize=12;" vertex="1" parent="oy4755nHvuw4tqzsBrUj-59">
          <mxGeometry y="26" width="150" height="30" as="geometry" />
        </mxCell>
        <mxCell id="oy4755nHvuw4tqzsBrUj-61" value="user_id" style="text;strokeColor=none;fillColor=none;spacingLeft=4;spacingRight=4;overflow=hidden;rotatable=0;points=[[0,0.5],[1,0.5]];portConstraint=eastwest;fontSize=12;" vertex="1" parent="oy4755nHvuw4tqzsBrUj-59">
          <mxGeometry y="56" width="150" height="30" as="geometry" />
        </mxCell>
        <mxCell id="oy4755nHvuw4tqzsBrUj-62" value="device_id&#xa;&#xa;rate" style="text;strokeColor=none;fillColor=none;spacingLeft=4;spacingRight=4;overflow=hidden;rotatable=0;points=[[0,0.5],[1,0.5]];portConstraint=eastwest;fontSize=12;" vertex="1" parent="oy4755nHvuw4tqzsBrUj-59">
          <mxGeometry y="86" width="150" height="74" as="geometry" />
        </mxCell>
        <mxCell id="oy4755nHvuw4tqzsBrUj-63" value="" style="edgeStyle=entityRelationEdgeStyle;fontSize=12;html=1;endArrow=ERmany;rounded=0;" edge="1" parent="1" source="oy4755nHvuw4tqzsBrUj-17" target="oy4755nHvuw4tqzsBrUj-60">
          <mxGeometry width="100" height="100" relative="1" as="geometry">
            <mxPoint x="-750" y="190" as="sourcePoint" />
            <mxPoint x="-260" y="250" as="targetPoint" />
          </mxGeometry>
        </mxCell>
        <mxCell id="oy4755nHvuw4tqzsBrUj-64" value="" style="edgeStyle=entityRelationEdgeStyle;fontSize=12;html=1;endArrow=ERmany;rounded=0;entryX=1.015;entryY=0.9;entryDx=0;entryDy=0;entryPerimeter=0;exitX=-0.006;exitY=0.147;exitDx=0;exitDy=0;exitPerimeter=0;" edge="1" parent="1" source="oy4755nHvuw4tqzsBrUj-31" target="oy4755nHvuw4tqzsBrUj-61">
          <mxGeometry width="100" height="100" relative="1" as="geometry">
            <mxPoint x="-360" y="350" as="sourcePoint" />
            <mxPoint x="-260" y="250" as="targetPoint" />
          </mxGeometry>
        </mxCell>
      </root>
    </mxGraphModel>
  </diagram>
</mxfile>
